<?xml version="1.0" encoding="UTF-8" standalone="no"?>
<!-- Created with Inkscape (http://www.inkscape.org/) -->

<svg
   xmlns:dc="http://purl.org/dc/elements/1.1/"
   xmlns:cc="http://creativecommons.org/ns#"
   xmlns:rdf="http://www.w3.org/1999/02/22-rdf-syntax-ns#"
   xmlns:svg="http://www.w3.org/2000/svg"
   xmlns="http://www.w3.org/2000/svg"
   xmlns:sodipodi="http://sodipodi.sourceforge.net/DTD/sodipodi-0.dtd"
   xmlns:inkscape="http://www.inkscape.org/namespaces/inkscape"
   version="1.1"
   id="svg96"
   width="266.52188"
   height="234.65375"
   viewBox="0 0 266.52188 234.65375"
   sodipodi:docname="wp.svg"
   inkscape:version="0.92.1 r15371">
  <metadata
     id="metadata102">
    <rdf:RDF>
      <cc:Work
         rdf:about="">
        <dc:format>image/svg+xml</dc:format>
        <dc:type
           rdf:resource="http://purl.org/dc/dcmitype/StillImage" />
        <dc:title></dc:title>
      </cc:Work>
    </rdf:RDF>
  </metadata>
  <defs
     id="defs100" />
  <sodipodi:namedview
     pagecolor="#ffffff"
     bordercolor="#666666"
     borderopacity="1"
     objecttolerance="10"
     gridtolerance="10"
     guidetolerance="10"
     inkscape:pageopacity="0"
     inkscape:pageshadow="2"
     inkscape:window-width="1256"
     inkscape:window-height="949"
     id="namedview98"
     showgrid="false"
     fit-margin-top="0"
     fit-margin-left="0"
     fit-margin-right="0"
     fit-margin-bottom="0"
     inkscape:zoom="2.7900001"
     inkscape:cx="133.33333"
     inkscape:cy="101.32041"
     inkscape:window-x="2655"
     inkscape:window-y="63"
     inkscape:window-maximized="0"
     inkscape:current-layer="svg96" />
  <path
     style="fill:#ffffff;stroke-width:1.33333325;fill-opacity:1"
     d="M 7.0822834,232.14071 C 2.4139314,229.29395 -0.75394763,222.88168 0.15610337,218.12106 0.49477437,216.34942 28.015618,167.6667 61.313534,109.93722 124.12647,1.0368014 124.80765,-0.00510056 133.18854,1.7438753e-5 141.37565,0.00491744 142.17431,1.2294814 205.33703,110.61232 c 33.65167,58.27671 61.18484,107.3565 61.18484,109.06622 0,1.7097 -0.91016,4.86861 -2.02257,7.01977 -4.3137,8.34177 2.05605,7.95685 -131.57788,7.95137 -116.745279,-0.005 -121.901123,-0.1076 -125.8391366,-2.50897 z M 233.60316,208.8307 c 0.38495,-1.00319 -5.4283,-12.68118 -12.91836,-25.95108 l -13.61829,-24.12712 -4.08151,2.48212 c -2.24484,1.36516 -6.65297,5.4674 -9.79586,9.11607 l -5.71436,6.63396 -16.74328,-9.74934 c -16.04953,-9.34538 -16.81091,-9.98753 -18.37553,-15.49832 -0.89775,-3.16194 -4.50132,-16.54898 -8.00796,-29.74898 -8.28246,-31.177616 -7.13678,-29.999996 -29.18652,-29.999996 -9.24822,0 -17.874091,0.56684 -19.168618,1.25965 -1.294526,0.69281 -5.495838,6.38345 -9.336248,12.645866 -9.245406,15.07617 -9.02141,17.04952 2.72596,24.01506 5.524474,3.27571 8.608004,5.91248 8.189538,7.00298 -1.932906,5.03708 1.038402,7.926 18.201108,17.69644 l 17.34853,9.87622 0.36673,20.03592 c 0.3654,19.96399 0.37902,20.04283 3.79244,21.95691 4.52804,2.5391 9.71509,1.12386 11.67902,-3.1865 0.93684,-2.05614 1.56192,-10.33965 1.56192,-20.69862 0,-9.49883 0.32724,-17.2706 0.72719,-17.2706 0.39996,0 7.57583,4.0176 15.94637,8.928 17.1527,10.06225 17.428,10.92946 4.61148,14.5256 -4.27454,1.19937 -9.08064,3.39996 -10.68021,4.89017 -2.94259,2.74144 -7.85504,12.25897 -7.90888,15.32289 -0.0451,2.56632 79.39984,2.41086 80.38534,-0.1573 z m -103.98442,-65.17855 -6.90314,-4.0978 3.86719,-6.77118 c 2.12695,-3.72416 4.36497,-6.93712 4.97337,-7.13992 0.60841,-0.2028 2.21973,3.9918 3.58071,9.32134 1.36099,5.32955 2.74358,10.44008 3.07242,11.35675 0.87894,2.45015 -0.89522,1.89889 -8.59055,-2.66919 z m -32.671428,-20.0995 -4.907888,-3.0188 5.574555,-9.58601 5.574551,-9.58601 7.02697,-0.0202 7.02698,-0.0202 -4.10572,7 c -2.25816,3.85 -5.38985,9.55 -6.95933,12.66667 -1.56949,3.11666 -3.18405,5.64794 -3.58792,5.62505 -0.40387,-0.0229 -2.942859,-1.40008 -5.642198,-3.06041 z m -5.760234,80.43697 c 1.326514,-1.46579 7.11361,-9.41579 12.860212,-17.66667 9.69879,-13.92537 10.44932,-15.48898 10.46148,-21.79496 0.0147,-7.6053 -1.13303,-9.12546 -10.4131,-13.79244 l -5.759532,-2.89649 0.87161,6.4078 c 0.479386,3.52429 1.132342,7.36563 1.451022,8.53628 0.50928,1.87081 -6.636315,13.42584 -18.390057,29.73825 -4.315816,5.98969 -4.619126,8.29277 -1.540194,11.69496 2.894056,3.19789 7.448668,3.09916 10.458559,-0.22673 z M 152.46214,96.493104 c 3.05948,-1.17404 6.05973,-7.573721 6.05973,-12.925735 0,-5.879357 -4.17892,-11.135268 -10.16846,-12.789057 -8.48036,-2.341544 -13.83154,2.871637 -13.83154,13.474871 0,4.41636 3.12504,11.164441 5.63862,12.175771 2.45954,0.98959 9.79037,1.02782 12.30165,0.0641 z"
     id="path106"
     inkscape:connector-curvature="0" />
</svg>
